<svg version="1.2" xmlns="http://www.w3.org/2000/svg" viewBox="0 0 23 20" width="23" height="20">
	<title>Rectangle 6105</title>
	<style>
		.s0 { fill: #00bd82 } 
		.s1 { fill: #cbf823 } 
	</style>
	<path id="Ellipse 4050" class="s0" d="m15.4 2.4c0.8-1.9 2.9-2.8 4.8-2 1.9 0.8 2.8 2.9 2 4.8-0.7 1.9-2.9 2.8-4.8 2-1.9-0.7-2.8-2.9-2-4.8z"/>
	<path id="Ellipse 4051" class="s0" d="m0.4 14.4c0.8-1.9 2.9-2.8 4.8-2 1.9 0.8 2.8 2.9 2 4.8-0.7 1.9-2.9 2.8-4.8 2-1.9-0.7-2.8-2.9-2-4.8z"/>
	<path id="Rectangle 6105" class="s1" d="m5.4 5.4c-0.8-0.9-0.7-2.3 0.3-3 0.9-0.8 2.2-0.7 3 0.3l8.6 10.5c0.8 0.9 0.7 2.2-0.2 3-1 0.7-2.3 0.6-3.1-0.3z"/>
</svg>